<svg width="16" height="13" viewBox="0 0 16 13" fill="none" xmlns="http://www.w3.org/2000/svg">
<path fill-rule="evenodd" clip-rule="evenodd" d="M15.5 1.44313C14.9481 1.68813 14.355 1.85312 13.7325 1.9275C14.3681 1.54688 14.8562 0.94375 15.0856 0.225C14.4913 0.5775 13.8325 0.83375 13.1313 0.971875C12.5706 0.37375 11.77 0 10.885 0C8.89812 0 7.43813 1.85375 7.88688 3.77812C5.33 3.65 3.0625 2.425 1.54438 0.563125C0.738125 1.94625 1.12625 3.75562 2.49625 4.67188C1.9925 4.65562 1.5175 4.5175 1.10312 4.28687C1.06937 5.7125 2.09125 7.04625 3.57125 7.34313C3.13812 7.46063 2.66375 7.48812 2.18125 7.39563C2.5725 8.61812 3.70875 9.5075 5.05625 9.5325C3.7625 10.5469 2.1325 11 0.5 10.8075C1.86188 11.6806 3.48 12.19 5.2175 12.19C10.9312 12.19 14.1594 7.36438 13.9644 3.03625C14.5656 2.60187 15.0875 2.06 15.5 1.44313Z" fill="#969696"/>
</svg>
