<svg width="16" height="16" viewBox="0 0 16 16" fill="none" xmlns="http://www.w3.org/2000/svg">
<path fill-rule="evenodd" clip-rule="evenodd" d="M4.5 0.5C2.29086 0.5 0.5 2.29086 0.5 4.5V11.5C0.5 13.7091 2.29086 15.5 4.5 15.5H7.91058V10.3683H6.137V8.36847H7.91058V6.89368C7.91058 5.18202 8.98391 4.25 10.5522 4.25C11.3035 4.25 11.9488 4.30466 12.137 4.32896V6.11791L11.0495 6.11847C10.1967 6.11847 10.0317 6.51325 10.0317 7.0919V8.36902H12.0656L11.8008 10.3689H10.0317V15.5H11.5C13.7091 15.5 15.5 13.7091 15.5 11.5V4.5C15.5 2.29086 13.7091 0.5 11.5 0.5H4.5Z" fill="#969696"/>
</svg>
