<svg width="16" height="16" viewBox="0 0 16 16" fill="none" xmlns="http://www.w3.org/2000/svg">
<path fill-rule="evenodd" clip-rule="evenodd" d="M8 0.5C5.96312 0.5 5.70813 0.50875 4.90812 0.545C2.18438 0.67 0.670625 2.18125 0.545625 4.9075C0.50875 5.70813 0.5 5.96312 0.5 8C0.5 10.0369 0.50875 10.2925 0.545 11.0925C0.67 13.8162 2.18125 15.33 4.9075 15.455C5.70813 15.4913 5.96312 15.5 8 15.5C10.0369 15.5 10.2925 15.4913 11.0925 15.455C13.8137 15.33 15.3313 13.8187 15.4544 11.0925C15.4913 10.2925 15.5 10.0369 15.5 8C15.5 5.96312 15.4913 5.70813 15.455 4.90812C15.3325 2.18688 13.8194 0.670625 11.0931 0.545625C10.2925 0.50875 10.0369 0.5 8 0.5ZM8 4.14875C5.87313 4.14875 4.14875 5.87313 4.14875 8C4.14875 10.1269 5.87313 11.8519 8 11.8519C10.1269 11.8519 11.8512 10.1275 11.8512 8C11.8512 5.87313 10.1269 4.14875 8 4.14875ZM8 10.5C6.61937 10.5 5.5 9.38125 5.5 8C5.5 6.61937 6.61937 5.5 8 5.5C9.38062 5.5 10.5 6.61937 10.5 8C10.5 9.38125 9.38062 10.5 8 10.5ZM12.0037 3.09688C11.5062 3.09688 11.1031 3.5 11.1031 3.99688C11.1031 4.49375 11.5062 4.89688 12.0037 4.89688C12.5006 4.89688 12.9031 4.49375 12.9031 3.99688C12.9031 3.5 12.5006 3.09688 12.0037 3.09688Z" fill="#969696"></path>
</svg>
